<?xml version="1.0" standalone="no"?>
<!DOCTYPE svg PUBLIC "-//W3C//DTD SVG 20010904//EN"
 "http://www.w3.org/TR/2001/REC-SVG-20010904/DTD/svg10.dtd">
<svg version="1.0" xmlns="http://www.w3.org/2000/svg"
 width="1024.000000pt" height="1024.000000pt" viewBox="0 0 1024.000000 1024.000000"
 preserveAspectRatio="xMidYMid meet">

<g transform="translate(0.000000,1024.000000) scale(0.100000,-0.100000)"
fill="#000000" stroke="none">
<path d="M3150 7790 l-35 -7 30 -3 c28 -3 28 -3 5 -7 -14 -3 -44 -11 -68 -19
-51 -17 -74 -18 -52 -3 11 8 9 9 -10 4 -47 -13 -140 -58 -140 -68 0 -11 -30
-36 -45 -36 -5 -1 1 9 15 20 35 29 7 13 -77 -43 -39 -26 -75 -53 -79 -60 -5
-8 0 -7 12 2 18 14 18 14 5 -2 -7 -10 -17 -16 -21 -13 -11 7 -61 -35 -54 -46
3 -5 0 -8 -8 -7 -7 2 -12 -3 -10 -10 1 -8 -1 -11 -6 -8 -12 7 -84 -68 -80 -85
2 -8 -2 -13 -9 -12 -14 3 -64 -62 -61 -79 2 -7 -2 -12 -9 -11 -14 3 -85 -110
-146 -232 -96 -193 -171 -448 -221 -750 -55 -328 -76 -603 -76 -995 0 -913
141 -1598 416 -2011 60 -90 196 -233 284 -300 83 -62 223 -132 321 -159 42
-11 125 -24 185 -29 l109 -8 -75 -3 c-74 -3 -75 -3 -25 -10 46 -7 151 3 163
15 3 3 -10 5 -29 6 -22 0 -9 5 39 14 40 7 86 18 104 24 17 6 33 9 36 7 4 -5
-94 -36 -114 -36 -7 0 -15 -4 -18 -9 -4 -5 4 -7 16 -4 49 10 213 66 218 73 3
4 21 15 40 24 19 8 49 24 65 33 17 10 57 34 90 52 33 19 62 38 65 41 6 7 115
48 148 55 51 11 65 14 83 20 25 8 190 -12 226 -27 16 -6 32 -10 36 -9 5 1 20
-7 35 -17 49 -34 70 -34 32 -1 -29 25 -24 23 28 -11 62 -41 87 -65 35 -34
l-28 16 25 -20 c13 -11 28 -18 32 -16 4 3 40 -15 80 -39 121 -72 242 -115 398
-141 14 -2 -4 -2 -40 0 -52 2 -59 1 -35 -7 17 -5 43 -12 59 -14 41 -8 212 -9
224 -1 5 3 27 8 48 12 108 16 258 81 414 179 112 70 258 133 279 121 5 -4 13
-1 17 5 8 14 185 5 214 -11 10 -5 30 -10 45 -10 17 0 24 -4 19 -12 -4 -6 -3
-9 2 -6 5 3 20 1 34 -5 14 -5 31 -11 38 -13 8 -1 21 -9 30 -17 10 -8 24 -17
32 -21 8 -4 0 5 -19 21 -71 58 -74 64 -14 23 35 -24 60 -46 58 -51 -3 -4 0
-11 6 -15 8 -4 9 -3 5 4 -11 17 2 15 32 -7 92 -64 291 -143 402 -159 57 -8 60
-10 25 -12 -38 -3 -38 -3 15 -10 30 -5 73 -8 95 -7 l40 0 -45 7 c-32 6 -19 7
45 5 59 -2 78 0 55 5 l-35 7 30 2 c96 4 279 78 401 162 398 275 625 819 714
1714 17 174 24 853 11 1055 -28 417 -93 776 -191 1065 -63 187 -224 496 -250
480 -5 -3 -7 0 -4 8 11 30 -259 302 -301 302 -7 0 -17 4 -22 9 -5 5 -2 6 7 2
8 -4 4 2 -10 13 -28 23 -153 91 -166 91 -5 -1 7 -9 26 -20 19 -11 31 -19 25
-19 -14 0 -82 38 -70 39 13 0 -16 20 -30 20 -5 0 -3 -5 5 -10 21 -13 15 -12
-60 10 -52 16 -57 19 -25 16 l40 -5 -40 14 c-22 7 -53 13 -70 13 l-30 0 30 -9
c23 -6 19 -7 -19 -4 -27 3 -56 6 -65 6 -9 1 0 5 19 9 l35 7 -32 2 c-17 0 -34
-3 -37 -8 -3 -5 -42 -9 -86 -10 -44 -1 -86 -4 -95 -7 -8 -4 -15 -1 -15 6 0 9
-11 11 -37 6 -51 -8 -116 -27 -111 -31 2 -3 28 2 58 10 30 8 61 15 69 15 29 0
1 -12 -71 -30 -81 -20 -188 -65 -188 -78 0 -5 -6 -9 -13 -9 -8 0 -46 -21 -86
-48 -39 -26 -74 -46 -77 -43 -3 3 29 27 70 54 42 26 76 49 76 51 0 6 -43 -18
-120 -70 -73 -48 -122 -88 -68 -54 31 19 38 21 38 8 0 -10 -28 -21 -63 -25
-12 -2 -35 -10 -52 -20 -16 -9 -21 -14 -10 -10 11 3 31 8 45 11 39 6 -44 -36
-111 -57 -59 -18 -177 -24 -194 -10 -6 5 -22 11 -36 13 -34 7 -122 47 -116 54
3 2 14 0 25 -6 12 -6 24 -11 29 -11 16 1 -52 34 -72 35 -23 1 -169 94 -161
102 3 3 38 -18 77 -46 39 -29 73 -50 75 -48 2 2 -29 26 -69 54 -91 63 -102 69
-93 55 11 -19 -3 -14 -69 22 -34 18 -89 44 -123 56 -66 24 -79 34 -34 25 l27
-5 -25 10 c-24 11 -148 20 -275 20 -60 1 -155 -12 -187 -25 -10 -4 -18 -3 -18
3 0 6 18 13 41 17 22 4 38 9 35 12 -2 3 -30 -1 -62 -8 -40 -9 -51 -15 -38 -19
18 -7 17 -7 -2 -18 -12 -6 -24 -8 -28 -5 -3 3 -6 1 -6 -5 0 -6 -6 -9 -13 -6
-8 3 -19 -2 -26 -10 -10 -11 -19 -13 -38 -5 -30 11 -66 -7 -238 -121 -59 -38
-112 -70 -118 -70 -6 0 -8 -3 -5 -6 9 -8 59 20 160 89 49 33 91 57 94 54 3 -3
-11 -15 -33 -27 -21 -11 -65 -41 -98 -65 -50 -37 -136 -87 -155 -90 -3 0 -15
-6 -28 -13 -12 -7 -27 -10 -32 -7 -6 3 -10 2 -10 -2 0 -20 -139 -12 -212 11
-88 28 -128 46 -128 58 0 5 13 2 30 -7 16 -8 33 -15 37 -15 4 1 -5 8 -22 17
-16 9 -79 48 -140 88 -119 78 -183 113 -266 145 -61 23 -90 26 -44 5 40 -18
19 -18 -41 0 -58 17 -148 29 -221 28 -29 0 -53 4 -53 9 0 4 -10 8 -22 7 -22 0
-22 -1 -3 -9 16 -7 14 -9 -15 -9 -26 -1 -31 2 -20 9 17 11 11 11 -40 0z m2195
-30 c3 -6 -1 -7 -9 -4 -18 7 -21 14 -7 14 6 0 13 -4 16 -10z m-1883 -34 c80
-18 238 -95 330 -159 37 -26 71 -47 76 -47 5 0 15 -7 22 -15 15 -18 79 -48
165 -76 41 -14 87 -21 145 -21 136 0 222 33 407 155 135 90 255 145 372 169
85 18 108 19 196 9 55 -5 107 -12 115 -14 58 -15 83 -24 145 -53 92 -44 133
-68 170 -100 17 -15 30 -26 30 -24 0 1 15 -6 32 -17 18 -10 33 -21 33 -25 0
-5 7 -8 15 -8 8 0 15 -5 15 -12 0 -6 3 -8 7 -5 3 4 13 1 22 -7 9 -7 52 -26 95
-41 95 -32 213 -36 304 -10 64 18 187 81 241 124 47 36 209 131 225 131 7 0
16 4 21 9 6 6 48 19 94 31 140 37 284 31 429 -16 53 -17 161 -71 179 -90 8 -8
18 -14 23 -14 14 0 64 -49 57 -56 -3 -4 -13 1 -22 10 -9 9 -27 16 -40 16 -12
0 -25 7 -29 15 -3 8 -15 15 -26 15 -11 0 -31 7 -43 15 -12 8 -37 15 -55 17
-19 1 -36 6 -38 10 -3 4 -12 4 -21 1 -9 -4 -14 -2 -10 3 3 6 -14 8 -41 7 -33
-2 -43 0 -32 7 13 8 13 10 -2 10 -9 0 -28 -4 -43 -10 -18 -7 -24 -7 -20 0 8
13 -62 11 -89 -3 -13 -6 -16 -6 -12 2 4 6 2 11 -3 11 -6 0 -11 -4 -11 -10 0
-6 -9 -6 -26 0 -16 7 -23 7 -19 0 3 -6 -4 -11 -17 -12 -50 -3 -110 -18 -127
-32 -12 -9 -13 -8 -7 4 7 13 6 13 -6 0 -7 -8 -24 -14 -37 -12 -18 3 -22 0 -18
-12 4 -9 2 -16 -3 -16 -6 0 -10 4 -10 10 0 5 -7 7 -15 4 -11 -5 -13 -10 -5
-19 8 -9 4 -11 -16 -7 -20 4 -25 2 -19 -8 6 -10 3 -12 -13 -8 -14 4 -20 2 -15
-5 4 -7 0 -8 -13 -3 -10 4 -16 4 -12 1 8 -8 -22 -45 -36 -45 -5 0 -24 -11 -41
-25 -18 -13 -35 -21 -39 -18 -3 3 -9 -3 -13 -13 -7 -20 -22 -34 -36 -34 -5 0
-5 6 -2 13 4 6 -2 1 -13 -12 -10 -13 -24 -21 -30 -17 -6 3 -12 2 -14 -3 -1 -4
-27 -21 -57 -35 -29 -15 -50 -22 -46 -16 6 9 2 9 -14 1 -12 -7 -27 -9 -33 -5
-7 4 -8 3 -4 -4 4 -7 4 -12 -1 -13 -4 0 -18 -2 -30 -3 -13 -2 -23 1 -23 6 0 5
-7 2 -16 -7 -12 -12 -19 -13 -24 -5 -5 8 -19 10 -39 5 -20 -4 -31 -3 -31 4 0
7 -11 9 -27 5 -23 -4 -25 -3 -13 6 12 9 10 10 -12 6 -17 -4 -28 -2 -28 4 0 6
-4 8 -10 5 -5 -3 -10 -2 -10 3 0 5 -13 15 -30 22 -16 7 -27 17 -24 22 4 6 -2
7 -16 3 -15 -5 -20 -4 -16 4 4 6 0 11 -9 11 -9 0 -13 4 -10 10 4 6 -1 7 -11 3
-10 -4 -15 -2 -11 4 3 5 -9 16 -28 23 -19 8 -35 19 -35 25 0 6 -16 17 -35 25
-19 7 -31 18 -28 23 3 6 1 7 -5 3 -14 -8 -45 6 -42 20 1 5 -4 10 -11 13 -8 2
-9 -1 -4 -10 5 -8 0 -6 -12 4 -11 9 -23 14 -26 10 -4 -3 -7 -1 -7 5 0 7 -12
12 -26 12 -14 0 -23 4 -19 10 8 13 -1 13 -28 -2 -19 -10 -20 -9 -9 4 10 13 10
17 -3 22 -8 3 -15 0 -15 -6 0 -6 -6 -5 -17 3 -9 8 -18 13 -20 12 -9 -7 -43 -2
-39 6 4 5 -9 5 -30 1 -39 -9 -67 -3 -58 11 3 6 -6 7 -23 2 -15 -4 -37 -7 -48
-6 -11 1 -42 4 -68 6 -42 4 -47 2 -42 -12 5 -13 4 -14 -6 -3 -16 15 -53 16
-43 1 4 -8 1 -8 -13 -1 -21 12 -133 -14 -133 -30 0 -5 -4 -7 -9 -3 -6 3 -25
-3 -43 -13 -18 -10 -39 -17 -45 -15 -7 3 -13 0 -13 -5 0 -6 6 -13 13 -16 6 -3
0 -3 -15 0 -18 4 -28 2 -28 -6 0 -7 -8 -9 -19 -5 -14 4 -18 1 -17 -16 1 -18
-6 -22 -33 -25 -38 -5 -55 -14 -25 -14 11 0 -1 -9 -26 -21 -25 -11 -55 -29
-67 -41 -12 -12 -27 -17 -34 -13 -8 5 -10 4 -5 -4 5 -7 -4 -16 -23 -24 -17 -7
-28 -16 -24 -20 3 -4 0 -7 -8 -8 -54 -4 -70 -8 -86 -20 -9 -8 -14 -9 -10 -2 5
7 0 9 -14 6 -16 -5 -18 -8 -7 -15 8 -6 -1 -7 -25 -3 -21 3 -36 2 -33 -3 2 -4
-4 -9 -15 -9 -11 -1 -17 2 -14 7 3 4 -12 4 -33 -1 -20 -4 -38 -4 -40 0 -2 5
-12 7 -22 4 -11 -3 -20 -1 -20 5 0 16 -31 23 -46 11 -12 -10 -13 -8 -8 6 6 15
3 17 -14 13 -12 -4 -22 -2 -22 3 0 5 -7 9 -15 9 -8 0 -15 5 -15 12 0 6 -3 9
-6 5 -4 -3 -13 0 -20 8 -8 8 -22 11 -31 8 -12 -5 -15 -2 -10 9 4 12 1 14 -14
11 -13 -4 -19 0 -19 11 0 8 -11 18 -25 22 -14 3 -30 15 -36 25 -5 11 -14 17
-20 14 -5 -4 -9 -1 -9 4 0 6 -7 11 -15 11 -8 0 -15 7 -15 16 0 8 -5 12 -11 8
-6 -3 -14 -2 -18 3 -8 13 -93 58 -103 55 -5 -1 -8 3 -8 9 0 5 -4 7 -10 4 -5
-3 -10 -1 -10 5 0 6 -4 9 -9 6 -5 -3 -39 5 -77 19 -52 19 -70 22 -76 12 -7
-11 -12 -3 -9 15 0 4 -10 3 -24 -2 -14 -5 -25 -6 -25 -2 0 4 -19 6 -41 4 -31
-3 -40 -1 -34 8 6 9 1 10 -16 4 -13 -4 -32 -7 -42 -6 -11 0 -15 -4 -10 -11 5
-9 3 -9 -8 -1 -16 13 -68 13 -87 1 -7 -5 -19 -6 -27 -3 -8 3 -15 0 -15 -7 0
-8 -4 -6 -10 3 -6 10 -10 11 -10 3 0 -7 -7 -13 -16 -13 -8 0 -13 -4 -9 -9 3
-6 -6 -6 -25 -1 -20 6 -28 5 -24 -1 3 -6 0 -9 -7 -8 -16 2 -33 -4 -109 -39
-30 -15 -56 -30 -58 -34 -2 -4 -10 -8 -18 -8 -8 0 -14 -4 -14 -9 0 -5 -16 -15
-34 -22 -19 -7 -33 -16 -30 -20 2 -4 -4 -10 -13 -13 -10 -3 -30 -17 -45 -31
-16 -14 -28 -23 -28 -20 0 3 -6 0 -14 -7 -8 -7 -12 -15 -11 -18 2 -3 -5 -7
-16 -7 -26 -2 -18 8 76 102 141 141 304 225 500 258 44 7 184 -2 247 -17z
m-453 10 c-8 -8 -79 -35 -79 -30 0 6 60 33 74 34 5 0 7 -2 5 -4z m671 -26 c8
-5 11 -10 5 -10 -5 0 -17 5 -25 10 -8 5 -10 10 -5 10 6 0 17 -5 25 -10z m1074
-15 c-4 -8 -13 -15 -22 -15 -8 0 -23 -7 -33 -16 -11 -10 -19 -12 -23 -5 -4 6
10 19 31 30 46 24 54 25 47 6z m-885 -97 c57 -37 99 -68 92 -68 -6 0 -46 24
-89 54 -42 30 -94 62 -114 72 -21 10 -38 22 -38 26 0 12 27 -3 149 -84z m3546
54 c-3 -3 -11 0 -18 7 -9 10 -8 11 6 5 10 -3 15 -9 12 -12z m-4595 -12 c0 -5
-5 -10 -11 -10 -5 0 -7 5 -4 10 3 6 8 10 11 10 2 0 4 -4 4 -10z m405 0 c3 -6
-1 -7 -9 -4 -18 7 -21 14 -7 14 6 0 13 -4 16 -10z m-465 -34 c0 -2 -8 -10 -17
-17 -16 -13 -17 -12 -4 4 13 16 21 21 21 13z m2190 -10 c0 -2 -7 -7 -16 -10
-8 -3 -12 -2 -9 4 6 10 25 14 25 6z m2601 -38 c25 -24 34 -34 20 -22 -14 11
-39 30 -55 42 -16 12 -25 22 -20 22 5 0 30 -19 55 -42z m90 -75 l24 -26 -27
19 c-15 10 -28 22 -28 27 0 12 5 8 31 -20z m-5053 -33 c-7 -10 -14 -17 -17
-15 -4 4 18 35 25 35 2 0 -1 -9 -8 -20z m893 -249 c42 -10 130 -41 167 -60 9
-4 35 -18 57 -30 99 -53 244 -120 260 -121 3 0 18 -6 33 -13 15 -8 33 -12 40
-10 6 3 12 0 12 -5 0 -26 258 -38 340 -15 126 34 242 82 302 124 14 11 32 19
40 19 8 0 20 6 27 13 6 6 15 12 19 12 4 0 31 13 60 27 28 15 52 25 52 21 0 -3
7 0 15 7 8 7 15 9 15 5 0 -4 6 -3 13 2 19 16 145 36 207 35 83 -3 119 -9 185
-32 33 -11 65 -22 70 -23 18 -4 80 -31 85 -36 6 -7 77 -40 88 -42 4 0 14 -6
22 -14 20 -17 105 -55 124 -55 8 0 18 -5 21 -10 4 -6 11 -8 16 -5 5 4 9 1 9
-4 0 -6 9 -11 20 -11 12 0 35 -7 52 -16 52 -27 220 -44 293 -30 11 2 40 7 65
11 25 4 50 11 55 15 6 5 35 15 65 24 30 9 82 30 115 47 195 101 295 148 330
155 50 10 46 9 68 19 20 8 170 9 207 1 14 -4 41 -9 60 -12 19 -4 40 -10 45
-14 6 -4 25 -11 43 -15 18 -3 38 -12 45 -18 6 -7 34 -23 60 -37 64 -33 82 -43
99 -58 8 -6 17 -9 20 -6 8 8 61 -63 113 -150 150 -254 256 -638 307 -1111 20
-187 17 -859 -5 -1050 -86 -737 -279 -1163 -608 -1345 -30 -16 -49 -30 -43
-30 17 0 125 68 177 111 26 22 47 36 47 30 0 -12 -86 -78 -155 -118 -110 -65
-243 -90 -330 -64 -29 9 -29 9 -5 11 17 1 8 6 -27 15 -29 8 -71 24 -93 35 -23
11 -46 18 -52 14 -7 -4 -8 -3 -4 4 8 14 -30 35 -47 26 -6 -4 -9 -4 -5 1 9 9
-9 35 -24 35 -5 0 -6 -6 -2 -12 4 -8 3 -10 -2 -5 -5 5 -9 14 -9 20 0 5 -6 12
-14 15 -9 3 -11 0 -6 -9 5 -8 5 -11 1 -7 -4 3 -8 10 -8 15 0 12 -19 33 -30 33
-5 0 -6 -5 -2 -12 4 -7 3 -8 -5 -4 -6 4 -9 11 -6 16 14 22 -234 142 -320 154
-40 6 -40 6 6 -8 76 -22 182 -65 214 -86 35 -23 30 -26 -11 -6 -135 65 -202
80 -359 82 -72 0 -142 -3 -155 -9 -31 -12 -47 -16 -87 -21 -17 -2 -36 -7 -42
-10 -6 -4 -11 -4 -11 -1 0 8 61 34 120 51 l45 14 -40 -6 c-22 -3 -72 -19 -110
-35 -93 -38 -258 -145 -249 -161 4 -7 3 -8 -5 -4 -13 8 -74 -31 -66 -44 3 -4
-1 -7 -8 -6 -6 0 -46 -16 -87 -37 -41 -20 -104 -44 -140 -51 -46 -10 -56 -15
-35 -16 30 -2 30 -2 5 -10 -36 -12 -158 -11 -210 1 -60 13 -162 51 -156 57 3
2 23 -3 46 -12 22 -9 46 -16 53 -16 6 0 -15 11 -47 25 -33 13 -64 21 -70 18
-6 -3 -8 -3 -4 2 5 5 -8 19 -27 32 -38 26 -50 29 -39 11 4 -8 3 -10 -2 -5 -5
5 -9 14 -9 20 0 5 -6 12 -14 15 -9 3 -11 0 -6 -8 5 -9 4 -11 -4 -6 -6 4 -9 11
-6 16 7 11 -22 33 -35 25 -6 -4 -9 -1 -8 7 2 8 -6 12 -22 10 -17 -1 -21 1 -11
7 16 10 -3 26 -19 16 -13 -8 -42 14 -34 26 6 10 -191 109 -215 108 -9 0 0 -6
19 -13 45 -17 180 -85 180 -91 0 -5 -36 7 -67 23 -104 52 -152 65 -281 76 -18
2 -34 5 -37 7 -4 5 -158 -7 -185 -14 -61 -15 -110 -30 -137 -43 -36 -16 -43
-17 -43 -5 0 10 83 45 157 67 46 13 46 14 8 8 -85 -12 -314 -131 -299 -156 4
-7 3 -8 -4 -4 -15 9 -73 -34 -65 -47 3 -6 1 -7 -5 -3 -6 3 -38 -12 -72 -33
-60 -39 -156 -81 -185 -81 -8 0 -16 -4 -19 -9 -4 -5 17 -3 45 4 29 8 48 10 43
6 -29 -26 -213 -41 -259 -21 -18 8 -18 9 5 10 16 1 7 6 -28 16 -29 7 -62 18
-72 24 -24 13 -33 13 -24 -1 4 -7 1 -10 -7 -7 -8 3 -13 10 -12 16 1 6 -23 25
-54 42 -71 41 -196 165 -252 252 -24 37 -48 65 -54 61 -6 -3 -7 -1 -3 5 4 6
-9 42 -27 79 -19 37 -42 89 -52 116 -10 26 -20 46 -22 44 -2 -3 1 -17 7 -32 6
-15 9 -30 7 -32 -6 -5 -55 128 -73 196 -24 89 -9 68 20 -30 15 -50 29 -89 31
-87 2 2 -9 50 -26 106 -180 616 -198 1534 -43 2192 82 351 221 648 377 805 18
18 -5 -19 -26 -42 -29 -32 -8 -28 39 7 21 16 44 30 50 30 5 0 19 8 30 18 20
19 109 57 159 68 17 4 35 11 41 15 34 27 207 32 305 10z m3820 -48 c13 -16 12
-17 -3 -4 -10 7 -18 15 -18 17 0 8 8 3 21 -13z m-3561 -30 c0 -7 -39 17 -46
28 -3 6 5 3 20 -6 14 -10 26 -19 26 -22z m3653 -58 c9 -18 9 -19 -7 -6 -9 8
-27 28 -38 45 l-22 31 28 -25 c15 -14 33 -34 39 -45z m-3398 -61 c38 -13 63
-23 54 -24 -38 -1 -235 83 -264 112 -5 5 24 -7 65 -28 41 -20 106 -48 145 -60z
m1721 28 c-5 -4 -126 56 -126 63 0 3 29 -10 65 -27 35 -18 63 -34 61 -36z m44
-12 c8 -5 11 -10 5 -10 -5 0 -17 5 -25 10 -8 5 -10 10 -5 10 6 0 17 -5 25 -10z
m100 -30 c20 -6 21 -8 5 -8 -11 0 -29 3 -40 8 -25 11 1 11 35 0z m-1581 -26
c8 -7 -153 -2 -184 6 -16 4 17 5 75 2 58 -3 107 -6 109 -8z m78 10 c-3 -3 -12
-4 -19 -1 -8 3 -5 6 6 6 11 1 17 -2 13 -5z m1566 -1 c-7 -2 -19 -2 -25 0 -7 3
-2 5 12 5 14 0 19 -2 13 -5z m244 1 c-3 -3 -12 -4 -19 -1 -8 3 -5 6 6 6 11 1
17 -2 13 -5z m-104 -11 c-24 -2 -62 -2 -85 0 -24 2 -5 4 42 4 47 0 66 -2 43
-4z m1804 -1600 c-2 -16 -4 -5 -4 22 0 28 2 40 4 28 2 -13 2 -35 0 -50z m0
-80 c-3 -10 -5 -2 -5 17 0 19 2 27 5 18 2 -10 2 -26 0 -35z m3 -78 c0 -30 -3
-55 -7 -55 -5 0 -6 25 -5 55 5 71 12 71 12 0z m-8 -244 c-2 -57 -8 -122 -12
-145 -7 -30 -8 -15 -5 59 3 55 5 132 6 170 1 46 3 61 8 45 4 -14 6 -72 3 -129z
m-5475 77 c-3 -7 -5 -2 -5 12 0 14 2 19 5 13 2 -7 2 -19 0 -25z m10 -155 c-2
-21 -4 -6 -4 32 0 39 2 55 4 38 2 -18 2 -50 0 -70z m10 -105 c-3 -7 -5 -2 -5
12 0 14 2 19 5 13 2 -7 2 -19 0 -25z m5438 -38 c-4 -12 -9 -19 -12 -17 -3 3
-2 15 2 27 4 12 9 19 12 17 3 -3 2 -15 -2 -27z m-5427 -41 c-3 -33 -4 -33 -8
8 -3 23 -2 39 3 34 5 -5 7 -24 5 -42z m5416 -24 c-4 -8 -8 -15 -10 -15 -2 0
-4 7 -4 15 0 8 4 15 10 15 5 0 7 -7 4 -15z m-5407 -62 c-3 -10 -5 -2 -5 17 0
19 2 27 5 18 2 -10 2 -26 0 -35z m5400 15 c-3 -8 -6 -5 -6 6 -1 11 2 17 5 13
3 -3 4 -12 1 -19z m-9 -86 c-3 -33 -7 -63 -10 -68 -3 -5 -8 -31 -12 -59 -3
-27 -10 -65 -15 -83 -5 -18 -10 -33 -9 -35 1 -13 -18 -94 -34 -142 -11 -33
-21 -67 -23 -75 -9 -45 -19 -77 -28 -95 -6 -11 -12 -24 -13 -30 -4 -18 -73
-160 -74 -150 0 5 16 46 35 90 63 148 120 360 162 603 9 56 19 102 21 102 2 0
2 -26 0 -58z m-5381 -9 c-3 -10 -5 -2 -5 17 0 19 2 27 5 18 2 -10 2 -26 0 -35z
m49 -230 c25 -116 27 -129 20 -122 -8 8 -56 231 -55 253 1 20 2 20 6 1 2 -11
15 -70 29 -132z m134 -438 c0 -5 -5 -3 -10 5 -5 8 -10 20 -10 25 0 6 5 3 10
-5 5 -8 10 -19 10 -25z m36 -69 c15 -27 23 -47 17 -43 -11 7 -53 82 -53 94 0
9 4 4 36 -51z m4924 -38 c-11 -18 -27 -46 -36 -63 -19 -34 -100 -141 -126
-167 -37 -37 -28 -16 12 29 45 52 121 162 141 206 7 15 16 27 20 27 5 0 0 -15
-11 -32z m-4852 -88 c13 -16 19 -30 14 -30 -4 0 -16 14 -25 30 -10 17 -16 30
-14 30 2 0 13 -13 25 -30z m112 -134 c41 -44 65 -73 54 -65 -25 16 -144 146
-144 156 0 4 4 3 8 -2 4 -6 42 -46 82 -89z m1466 55 c61 -16 106 -35 182 -74
26 -14 30 -42 5 -34 -10 3 -38 13 -62 22 -24 9 -50 14 -58 11 -7 -3 -13 -2
-13 2 0 13 -86 28 -114 21 -14 -4 -24 -4 -21 1 3 4 -41 7 -98 5 -80 -2 -116
-8 -167 -27 -36 -14 -71 -23 -79 -20 -8 3 -11 0 -7 -7 4 -6 1 -11 -9 -11 -16
0 -59 -25 -83 -47 -6 -6 -22 -15 -34 -19 -12 -3 -26 -10 -32 -15 -50 -42 -60
-48 -67 -43 -5 3 -12 -2 -15 -10 -3 -9 -12 -16 -19 -16 -7 0 -15 -7 -19 -15
-3 -8 -15 -15 -26 -15 -11 0 -20 -5 -20 -11 0 -5 -4 -8 -9 -4 -5 3 -12 1 -16
-5 -9 -14 -85 -48 -135 -59 -56 -12 -230 -11 -230 1 0 6 -9 8 -20 5 -11 -3
-20 -1 -20 4 0 5 -11 9 -24 9 -13 0 -29 7 -36 15 -7 8 -15 13 -19 10 -4 -2
-20 7 -34 21 -15 14 -36 26 -47 27 -11 1 -16 5 -12 9 5 5 33 -2 63 -15 30 -13
79 -30 109 -38 72 -17 243 -18 295 0 44 14 167 71 175 80 3 3 41 30 85 60 44
30 82 57 85 61 5 6 53 35 125 75 41 23 120 51 165 58 68 11 191 6 256 -12z
m1963 -14 c41 -14 78 -32 82 -39 5 -7 9 -8 9 -3 0 6 3 5 8 -1 4 -6 21 -19 37
-28 l30 -16 -30 6 c-16 3 -37 8 -45 11 -27 10 -45 14 -63 14 -9 0 -15 4 -13 8
3 4 -15 7 -39 7 -23 -1 -41 2 -39 6 3 4 -9 6 -25 4 -17 -2 -31 1 -31 6 0 5 -5
6 -12 2 -6 -4 -32 -6 -57 -5 -25 1 -80 -5 -121 -14 -41 -8 -84 -17 -95 -19
-22 -4 -77 -27 -85 -36 -11 -13 -82 -50 -96 -50 -8 0 -14 -4 -14 -10 0 -5 -5
-10 -11 -10 -15 0 -60 -36 -53 -42 3 -3 -7 -8 -21 -12 -14 -4 -25 -11 -25 -17
0 -6 -4 -8 -9 -4 -5 3 -20 -5 -33 -17 -27 -26 -64 -45 -163 -84 -86 -33 -98
-36 -205 -40 -68 -3 -100 1 -162 20 -42 13 -79 21 -83 18 -3 -4 -3 0 0 9 4 10
-1 15 -16 16 -22 2 -35 10 -28 17 2 2 22 -2 44 -10 52 -18 195 -33 265 -28 74
6 193 40 260 75 63 33 113 62 120 70 3 3 59 41 125 84 131 86 210 123 283 132
26 3 49 8 52 10 3 3 46 3 95 1 63 -3 112 -12 164 -31z m-480 20 c-12 -10 -113
-58 -107 -52 16 16 83 54 97 55 8 0 12 -1 10 -3z m-1963 -25 c-3 -5 -16 -12
-28 -15 -22 -6 -22 -6 2 13 25 19 37 20 26 2z m3698 -50 c3 -5 -1 -9 -9 -9 -8
0 -12 4 -9 9 3 4 7 8 9 8 2 0 6 -4 9 -8z m-19 -32 c3 -6 -1 -7 -9 -4 -18 7
-21 14 -7 14 6 0 13 -4 16 -10z m-2954 -27 c17 -20 18 -23 3 -10 -11 9 -24 14
-27 10 -4 -3 -7 1 -7 10 0 22 2 22 31 -10z m2929 12 c7 -9 8 -15 2 -15 -5 0
-12 7 -16 15 -3 8 -4 15 -2 15 2 0 9 -7 16 -15z m-1016 -11 c3 -8 2 -12 -4 -9
-6 3 -10 10 -10 16 0 14 7 11 14 -7z m996 -8 c0 -22 -80 -100 -145 -141 -33
-21 -63 -42 -66 -47 -3 -6 -10 -9 -15 -9 -5 0 -27 -6 -49 -14 -64 -24 -214
-46 -235 -35 -9 5 -20 7 -23 3 -4 -3 -13 0 -22 7 -9 7 -18 10 -22 7 -3 -4 -12
-2 -20 4 -7 6 -13 8 -13 4 0 -4 -7 -2 -15 5 -8 6 -19 9 -24 5 -6 -3 -8 0 -5 9
3 9 16 13 32 11 135 -16 155 -16 238 0 59 11 115 29 166 55 75 38 200 123 206
141 5 14 12 11 12 -5z m-4475 -50 c6 -4 1 -4 -10 2 -11 6 -29 21 -40 34 -19
22 -19 22 10 -2 17 -14 35 -29 40 -34z m40 -24 c-3 -3 -11 0 -18 7 -9 10 -8
11 6 5 10 -3 15 -9 12 -12z m105 -37 c19 -7 28 -14 20 -14 -8 0 -28 6 -45 14
-39 17 -21 18 25 0z m2266 6 c-7 -11 -99 -41 -123 -40 -14 0 35 19 125 48 2 1
1 -3 -2 -8z m1474 -19 c3 -3 -8 -2 -25 2 -16 4 -34 12 -40 17 -5 5 6 4 25 -2
19 -7 37 -14 40 -17z m-70 -63 c0 -15 -18 -19 -23 -6 -3 8 1 14 9 14 8 0 14
-4 14 -8z m-490 -165 c0 -2 -9 0 -20 6 -11 6 -20 13 -20 16 0 2 9 0 20 -6 11
-6 20 -13 20 -16z m-1890 -10 c0 -2 -9 0 -20 6 -11 6 -20 13 -20 16 0 2 9 0
20 -6 11 -6 20 -13 20 -16z m1350 -39 c0 -16 -224 -156 -247 -155 -4 1 17 14
47 30 30 15 87 51 125 79 75 53 75 53 75 46z m-1930 -19 c0 -2 -8 -10 -17 -17
-16 -13 -17 -12 -4 4 13 16 21 21 21 13z m-65 -51 c-31 -26 -177 -105 -192
-105 -4 0 28 20 72 43 44 23 94 52 110 64 40 30 47 28 10 -2z m1730 -95 c-3
-5 -12 -10 -18 -10 -7 0 -6 4 3 10 19 12 23 12 15 0z m-61 -25 c-17 -8 -44
-16 -60 -20 -16 -3 -6 4 21 14 57 22 86 26 39 6z m-97 -31 c-3 -3 -12 -4 -19
-1 -8 3 -5 6 6 6 11 1 17 -2 13 -5z m-62 -14 c-16 -4 -48 -7 -70 -7 l-40 0 45
7 c25 4 56 7 70 7 22 1 21 0 -5 -7z m-152 -17 c-7 -2 -21 -2 -30 0 -10 3 -4 5
12 5 17 0 24 -2 18 -5z"/>
<path d="M5168 7643 c7 -3 16 -2 19 1 4 3 -2 6 -13 5 -11 0 -14 -3 -6 -6z"/>
<path d="M6970 6795 c-674 -390 -1216 -833 -1773 -1450 -99 -110 -184 -201
-188 -203 -5 -2 -88 75 -186 170 -265 257 -464 418 -518 418 -48 0 -58 -48
-25 -125 11 -25 58 -115 103 -198 206 -374 394 -740 433 -845 32 -83 52 -215
59 -392 7 -163 15 -195 56 -215 37 -20 171 -20 208 -1 44 23 53 58 62 238 9
192 21 265 55 357 69 184 330 561 668 965 268 320 879 947 908 930 7 -4 10 -4
6 1 -11 11 12 36 26 28 6 -3 8 -2 3 2 -10 11 62 85 83 85 21 0 53 34 43 44 -5
4 -1 6 7 4 8 -1 14 4 15 12 0 9 8 14 19 12 11 -2 16 2 14 10 -3 7 15 33 39 58
24 24 55 68 70 97 27 51 27 52 9 72 -11 12 -22 21 -25 21 -3 0 -80 -43 -171
-95z m150 41 c0 -7 -191 -136 -201 -136 -5 0 -9 -4 -9 -8 0 -5 -18 -17 -40
-28 -22 -10 -40 -22 -40 -26 0 -5 -5 -8 -10 -8 -6 0 -16 -5 -23 -10 -32 -27
-138 -100 -145 -100 -4 0 -22 -14 -40 -30 -19 -16 -42 -32 -53 -35 -11 -4 -17
-10 -15 -14 3 -4 0 -8 -7 -8 -10 0 -111 -66 -127 -83 -16 -17 -121 -90 -130
-90 -5 0 -10 -4 -10 -10 0 -5 -19 -22 -42 -36 -24 -15 -48 -32 -54 -38 -35
-34 -64 -55 -64 -46 0 11 55 62 140 129 36 28 71 55 77 61 7 6 34 25 60 42 27
18 50 35 53 39 17 23 401 279 585 391 75 45 95 54 95 44z m-1020 -714 c0 -4
-8 -14 -18 -22 -71 -60 -85 -70 -93 -70 -5 0 13 23 41 50 48 47 70 60 70 42z
m-132 -120 c-16 -9 -28 -20 -28 -24 0 -5 -7 -8 -17 -8 -24 0 26 48 52 49 17 0
16 -2 -7 -17z m-58 -46 c0 -3 -15 -14 -32 -26 l-33 -22 30 26 c31 27 35 29 35
22z m-856 -881 c-4 -8 -17 -15 -30 -15 -42 0 -25 27 18 29 12 1 15 -4 12 -14z"/>
<path d="M6915 6524 c-18 -16 -22 -22 -9 -15 18 9 53 42 43 41 -2 -1 -17 -12
-34 -26z"/>
<path d="M4060 3674 c8 -1 74 -4 145 -6 72 -3 117 -1 100 3 -16 4 -82 7 -145
7 -63 0 -108 -2 -100 -4z"/>
<path d="M6028 3673 c34 -2 88 -2 120 0 31 2 3 3 -63 3 -66 0 -92 -1 -57 -3z"/>
<path d="M4348 3653 c7 -3 16 -2 19 1 4 3 -2 6 -13 5 -11 0 -14 -3 -6 -6z"/>
<path d="M4615 3530 c3 -5 11 -10 16 -10 6 0 7 5 4 10 -3 6 -11 10 -16 10 -6
0 -7 -4 -4 -10z"/>
<path d="M7110 3350 c-18 -12 -2 -12 25 0 13 6 15 9 5 9 -8 0 -22 -4 -30 -9z"/>
<path d="M6985 3330 l-60 -7 55 0 c30 0 69 3 85 7 26 7 27 8 5 7 -14 0 -52 -3
-85 -7z"/>
<path d="M3248 3323 c17 -2 47 -2 65 0 17 2 3 4 -33 4 -36 0 -50 -2 -32 -4z"/>
<path d="M5000 3319 c14 -6 63 -12 110 -14 l85 -4 -75 8 c-41 5 -91 11 -110
15 -32 5 -33 5 -10 -5z"/>
<path d="M3393 7793 c9 -2 23 -2 30 0 6 3 -1 5 -18 5 -16 0 -22 -2 -12 -5z"/>
<path d="M5038 7793 c6 -2 18 -2 25 0 6 3 1 5 -13 5 -14 0 -19 -2 -12 -5z"/>
<path d="M5208 7793 c7 -3 16 -2 19 1 4 3 -2 6 -13 5 -11 0 -14 -3 -6 -6z"/>
<path d="M6823 7793 c9 -2 23 -2 30 0 6 3 -1 5 -18 5 -16 0 -22 -2 -12 -5z"/>
<path d="M3458 7783 c6 -2 18 -2 25 0 6 3 1 5 -13 5 -14 0 -19 -2 -12 -5z"/>
<path d="M5268 7783 c6 -2 18 -2 25 0 6 3 1 5 -13 5 -14 0 -19 -2 -12 -5z"/>
<path d="M3088 7773 c7 -3 16 -2 19 1 4 3 -2 6 -13 5 -11 0 -14 -3 -6 -6z"/>
<path d="M3508 7773 c7 -3 16 -2 19 1 4 3 -2 6 -13 5 -11 0 -14 -3 -6 -6z"/>
<path d="M4791 7736 c-21 -12 -22 -14 -5 -20 10 -4 15 -4 11 0 -4 5 3 14 15
21 13 7 19 12 13 12 -5 0 -21 -6 -34 -13z"/>
<path d="M5430 7740 c8 -5 20 -10 25 -10 6 0 3 5 -5 10 -8 5 -19 10 -25 10 -5
0 -3 -5 5 -10z"/>
<path d="M6603 7740 c-34 -14 -28 -21 7 -9 17 6 30 13 30 15 0 6 -12 4 -37 -6z"/>
<path d="M5471 7726 c10 -9 109 -56 109 -51 0 5 -95 55 -106 55 -4 0 -5 -2 -3
-4z"/>
<path d="M6528 7704 c-39 -21 -35 -28 5 -8 37 19 44 24 31 24 -5 -1 -21 -8
-36 -16z"/>
<path d="M6155 7490 c-13 -6 -15 -9 -5 -9 8 0 22 4 30 9 18 12 2 12 -25 0z"/>
<path d="M4328 7483 c7 -3 16 -2 19 1 4 3 -2 6 -13 5 -11 0 -14 -3 -6 -6z"/>
<path d="M5915 7480 c19 -8 73 -14 64 -6 -2 2 -22 6 -44 9 -28 5 -34 4 -20 -3z"/>
<path d="M4135 7470 c30 -8 132 -13 124 -6 -2 2 -38 6 -79 9 -44 3 -63 2 -45
-3z"/>
<path d="M4278 7473 c6 -2 18 -2 25 0 6 3 1 5 -13 5 -14 0 -19 -2 -12 -5z"/>
<path d="M6088 7473 c6 -2 18 -2 25 0 6 3 1 5 -13 5 -14 0 -19 -2 -12 -5z"/>
<path d="M6013 7463 c9 -2 23 -2 30 0 6 3 -1 5 -18 5 -16 0 -22 -2 -12 -5z"/>
<path d="M7233 2848 c-18 -6 -33 -15 -33 -19 0 -4 15 -2 33 5 17 7 39 16 47
19 29 10 -12 6 -47 -5z"/>
<path d="M6788 2833 c7 -3 16 -2 19 1 4 3 -2 6 -13 5 -11 0 -14 -3 -6 -6z"/>
<path d="M4898 2823 c7 -3 16 -2 19 1 4 3 -2 6 -13 5 -11 0 -14 -3 -6 -6z"/>
<path d="M7150 2821 c0 -5 9 -7 20 -4 11 3 20 7 20 9 0 2 -9 4 -20 4 -11 0
-20 -4 -20 -9z"/>
<path d="M3110 2816 c0 -2 14 -6 30 -8 17 -3 30 -1 30 4 0 4 -13 8 -30 8 -16
0 -30 -2 -30 -4z"/>
<path d="M7738 1453 c7 -3 16 -2 19 1 4 3 -2 6 -13 5 -11 0 -14 -3 -6 -6z"/>
<path d="M7608 1423 c6 -2 18 -2 25 0 6 3 1 5 -13 5 -14 0 -19 -2 -12 -5z"/>
<path d="M7558 1413 c7 -3 16 -2 19 1 4 3 -2 6 -13 5 -11 0 -14 -3 -6 -6z"/>
<path d="M7493 1403 c9 -2 23 -2 30 0 6 3 -1 5 -18 5 -16 0 -22 -2 -12 -5z"/>
<path d="M7403 1393 c9 -2 25 -2 35 0 9 3 1 5 -18 5 -19 0 -27 -2 -17 -5z"/>
<path d="M7308 1383 c12 -2 32 -2 45 0 12 2 2 4 -23 4 -25 0 -35 -2 -22 -4z"/>
<path d="M7218 1373 c7 -3 16 -2 19 1 4 3 -2 6 -13 5 -11 0 -14 -3 -6 -6z"/>
<path d="M6048 1363 c7 -3 16 -2 19 1 4 3 -2 6 -13 5 -11 0 -14 -3 -6 -6z"/>
<path d="M6408 1363 c7 -3 16 -2 19 1 4 3 -2 6 -13 5 -11 0 -14 -3 -6 -6z"/>
<path d="M6488 1363 c7 -3 16 -2 19 1 4 3 -2 6 -13 5 -11 0 -14 -3 -6 -6z"/>
</g>
</svg>
