<svg width="4475" height="3677" viewBox="0 0 4475 3677" fill="none" xmlns="http://www.w3.org/2000/svg">
<path d="M3029.71 1301.63C3022.28 1305.22 2984.26 1327.48 2944.49 1350.82C2596.63 1555.5 2312.13 1767.71 2182.78 1918.89C2168.79 1935.41 2155.68 1948.69 2153.94 1948.69C2151.75 1948.69 2137.77 1935.41 2122.47 1918.89C2059.98 1852.46 1938.05 1765.92 1833.17 1713.49C1795.59 1694.82 1779.85 1693.74 1775.05 1709.54C1771.11 1722.47 1775.05 1729.29 1808.26 1770.95C1961.65 1961.98 2044.25 2109.56 2101.06 2293.41C2123.35 2365.94 2127.72 2374.56 2146.94 2379.59C2176.22 2387.49 2187.15 2375.28 2204.19 2316.03C2267.56 2093.76 2364.58 1949.41 2592.7 1738.63C2648.2 1687.28 2718.56 1624.8 2808.58 1546.52C2848.35 1512.05 2895.11 1471.47 2912.15 1456.75C2929.2 1442.03 2972.02 1405.04 3006.98 1374.52C3057.68 1331.07 3071.22 1317.07 3071.22 1309.17C3071.22 1294.09 3052 1290.49 3029.71 1301.63Z" fill="#CC0909"/>
</svg>
